<?xml version="1.0" encoding="UTF-8"?>
<svg version="1.1" viewBox="0 0 1600 1600" width="1280" height="1280" xmlns="http://www.w3.org/2000/svg">
<path transform="translate(814 406)" d="m0 0c1.64 0.463 1.64 0.463 3.31 0.935 3.62 1.02 7.23 2.06 10.8 3.1 2.56 0.729 5.13 1.46 7.69 2.18 5.36 1.52 10.7 3.05 16.1 4.58 7.63 2.18 15.3 4.35 22.9 6.51 1.21 0.343 2.42 0.685 3.67 1.04 2.45 0.693 4.89 1.39 7.34 2.08 3.72 1.05 7.44 2.11 11.2 3.16 18.5 5.24 36.9 10.4 55.4 15.6 19.5 5.48 39 11 58.5 16.5 27.7 7.84 55.4 15.6 83.1 23.4 1.09 0.307 2.19 0.613 3.32 0.929 5.31 1.49 10.6 2.98 15.9 4.46 4.09 1.15 8.18 2.29 12.3 3.44 9.62 2.7 19.2 5.38 28.9 8.04 4.61 1.27 9.22 2.55 13.8 3.83 2.19 0.607 4.39 1.21 6.59 1.81 3.04 0.834 6.08 1.68 9.12 2.52 0.888 0.241 1.78 0.482 2.69 0.731 14.5 4.06 20.5 9.58 28 22.5 1.05 1.78 2.1 3.56 3.16 5.34 0.532 0.9 1.06 1.8 1.61 2.73 2.51 4.19 5.11 8.31 7.73 12.4 0.748 1.18 0.748 1.18 1.51 2.38 0.984 1.55 1.97 3.1 2.95 4.65 6.09 9.59 12.1 19.3 18 29 4.46 7.3 9 14.5 13.5 21.8 4.74 7.57 9.42 15.2 14.1 22.8 5.02 8.18 10.1 16.3 15.2 24.4 5 7.9 9.89 15.9 14.8 23.8 3.36 5.48 6.74 11 10.2 16.4 1.89 3 3.76 6.03 5.63 9.05 0.651 1.03 1.3 2.07 1.97 3.13 4.49 7.53 4.49 7.53 4.15 12.2-1.5 4.84-3.41 7.66-7.87 10.2-1.07 0.432-2.14 0.865-3.25 1.31-0.603 0.246-1.21 0.492-1.83 0.745-7.78 3.13-15.7 5.96-23.6 8.81-4.55 1.64-9.1 3.3-13.7 4.96-0.881 0.32-1.76 0.64-2.67 0.97-6.47 2.36-12.9 4.76-19.4 7.23-1.21 0.463-1.21 0.463-2.44 0.935-1.48 0.571-2.97 1.14-4.45 1.71-11.4 4.37-22.8 8.52-34.3 12.6-1.02 0.366-2.04 0.731-3.09 1.11-0.904 0.323-1.81 0.646-2.74 0.979-2.38 0.866-4.76 1.75-7.13 2.64-0.716 0.269-1.43 0.538-2.17 0.814-0.543 0.204-1.09 0.408-1.65 0.619-1.47 28.4-2.65 56.8-3.69 85.2-0.427 11.7-0.863 23.3-1.3 35-0.0432 1.16-0.0865 2.31-0.131 3.51-0.869 23.2-1.8 46.5-2.78 69.7-0.15 3.53-0.299 7.05-0.447 10.6-0.0285 0.675-0.0569 1.35-0.0862 2.05-0.419 10-0.77 20-1.09 30-0.0823 2.51-0.165 5.03-0.248 7.54-0.151 4.6-0.285 9.19-0.407 13.8-0.0649 2.01-0.13 4.02-0.197 6.03-0.0187 0.896-0.0374 1.79-0.0567 2.72-0.182 4.97-0.65 8.69-3.57 12.9-4.39 3.59-9.17 5.4-14.5 7.26-0.831 0.3-1.66 0.6-2.52 0.91-2.76 0.994-5.52 1.98-8.28 2.96-1.97 0.706-3.93 1.41-5.9 2.12-4.16 1.5-8.32 2.99-12.5 4.47-6.22 2.22-12.4 4.46-18.6 6.7-8.35 3.01-16.7 6.02-25 9.02-1.58 0.567-1.58 0.567-3.19 1.15-2.12 0.761-4.23 1.52-6.35 2.28-9.21 3.31-18.4 6.63-27.6 9.94-1.02 0.367-2.04 0.733-3.09 1.11-18.3 6.59-36.6 13.2-54.9 19.9-17.3 6.28-34.7 12.5-52 18.7-18.9 6.75-37.7 13.5-56.6 20.4-1.23 0.446-2.46 0.892-3.73 1.35-4.79 1.74-9.59 3.47-14.4 5.21-6.83 2.48-13.7 4.95-20.5 7.43-0.796 0.288-1.59 0.576-2.41 0.873-3.68 1.33-7.35 2.66-11 3.98-1.36 0.488-2.71 0.975-4.07 1.46-0.65 0.233-1.3 0.467-1.97 0.707-4 1.44-7.99 2.91-12 4.4-1.98 0.741-3.96 1.47-5.95 2.21-2.4 0.888-4.8 1.79-7.19 2.7-10 3.68-16.3 1.82-26.1-1.63-1.62-0.566-1.62-0.566-3.27-1.14-14.5-5.1-28.8-10.4-43.2-15.8-11.9-4.4-23.8-8.67-35.8-12.8-7.29-2.52-14.5-5.14-21.8-7.77-1.5-0.544-3-1.09-4.5-1.63-2.41-0.872-4.81-1.74-7.22-2.62-6.53-2.37-13.1-4.73-19.6-7.08-34.9-12.6-34.9-12.6-49.8-18.2-8.56-3.2-17.2-6.24-25.8-9.19-12.2-4.16-24.3-8.52-36.4-12.9-0.922-0.336-1.84-0.673-2.8-1.02-3.81-1.39-7.63-2.78-11.4-4.18-11.1-4.06-22.3-8.09-33.4-12.1-0.994-0.36-1.99-0.719-3.01-1.09-10.6-3.83-21.2-7.65-31.8-11.4-8.71-3.09-17.4-6.2-26.1-9.49-0.702-0.262-1.4-0.525-2.13-0.795-6.45-2.5-11.3-5.02-14.5-11.3-0.491-2.82-0.491-2.82-0.65-5.91-0.0645-1.15-0.129-2.3-0.196-3.48-0.051-1.19-0.102-2.38-0.154-3.61-0.0817-1.7-0.0817-1.7-0.165-3.43-0.165-3.67-0.303-7.34-0.436-11-0.0526-1.4-0.105-2.81-0.159-4.21-0.143-3.8-0.283-7.6-0.422-11.4-0.15-4.07-0.302-8.13-0.455-12.2-0.26-6.95-0.518-13.9-0.776-20.8-0.401-10.8-0.805-21.6-1.21-32.5-0.0503-1.34-0.0503-1.34-0.102-2.71-0.135-3.62-0.271-7.23-0.406-10.9-0.203-5.42-0.406-10.8-0.608-16.3-1.18-31.7-2.4-63.4-3.64-95.1-0.086-2.2-0.172-4.41-0.258-6.61-0.454-11.6-0.91-23.3-1.37-34.9-0.55-0.109-1.1-0.217-1.67-0.329-5.52-1.15-10.7-2.74-15.9-4.76-1.19-0.45-1.19-0.45-2.4-0.909-1.69-0.641-3.39-1.29-5.08-1.93-3.59-1.37-7.19-2.73-10.8-4.09-1.82-0.688-3.64-1.38-5.46-2.07-7.55-2.86-15.1-5.65-22.7-8.41-11.3-4.12-22.5-8.28-33.8-12.5-1.8-0.671-3.59-1.34-5.39-2.01-2.52-0.936-5.03-1.88-7.55-2.82-1.12-0.417-1.12-0.417-2.27-0.841-12.8-4.81-12.8-4.81-16-9.35-1.63-4.86-1.42-8.87 0.75-13.5 2.95-5.27 6.3-10.3 9.62-15.4 3.93-5.99 7.68-12.1 11.4-18.2 7.3-12.1 14.8-24 22.2-35.9 8.51-13.6 17-27.2 25.4-40.8 3.96-6.45 7.95-12.9 12-19.3 4.01-6.39 7.97-12.8 11.9-19.2 2.67-4.33 5.37-8.64 8.11-12.9 2.59-4.06 5.12-8.16 7.62-12.3 0.677-1.12 1.35-2.23 2.05-3.38 1.04-1.72 2.08-3.43 3.11-5.15 1.02-1.7 2.05-3.4 3.09-5.09 0.6-0.993 1.2-1.99 1.82-3.01 3.74-5.41 7.01-8.25 13.3-10.2 0.643-0.201 1.29-0.402 1.95-0.61 2.22-0.683 4.44-1.33 6.67-1.98 0.821-0.239 1.64-0.478 2.49-0.725 6.76-1.96 13.5-3.84 20.3-5.71 2.21-0.616 4.43-1.23 6.64-1.85 4.58-1.28 9.17-2.55 13.7-3.82 10.5-2.93 21.1-5.88 31.6-8.83 1.55-0.433 1.55-0.433 3.13-0.876 15.6-4.37 31.2-8.77 46.8-13.2 21.8-6.18 43.6-12.3 65.4-18.5 0.819-0.231 1.64-0.462 2.48-0.7 25.8-7.28 51.6-14.5 77.4-21.8 26.4-7.39 52.8-14.8 79.1-22.3 2.21-0.626 4.41-1.25 6.62-1.88 4.03-1.14 8.07-2.29 12.1-3.43 1.19-0.337 2.38-0.675 3.6-1.02 1.08-0.307 2.16-0.614 3.27-0.93 0.936-0.266 1.87-0.532 2.84-0.806 8.82-2.58 14.7-1.32 23.4 1.22zm-30.5 26.4c-1.85 0.525-1.85 0.525-3.74 1.06-2.68 0.76-5.36 1.53-8.03 2.3-4.31 1.24-8.62 2.46-12.9 3.69-5.26 1.49-10.5 2.99-15.8 4.49-12.6 3.61-25.3 7.16-38 10.7-6.58 1.85-13.2 3.7-19.7 5.55-1.02 0.287-1.02 0.287-2.06 0.58-19.4 5.45-38.7 10.9-58.1 16.4-0.909 0.257-1.82 0.514-2.76 0.778-18.8 5.32-37.7 10.6-56.5 16-0.652 0.185-1.3 0.37-1.98 0.561-5.61 1.59-11.2 3.18-16.8 4.78-19.1 5.42-38.2 10.8-57.4 16.1-10.1 2.8-20.1 5.65-30.1 8.56-1.04 0.301-2.08 0.602-3.15 0.912-0.959 0.28-1.92 0.559-2.91 0.848-0.85 0.247-1.7 0.495-2.58 0.75-2.1 0.606-2.1 0.606-4.07 1.65v2c0.608 0.223 1.22 0.446 1.84 0.676 26.9 9.87 53.7 19.8 80.5 29.8 0.991 0.372 1.98 0.745 3 1.13 3.88 1.46 7.76 2.91 11.6 4.37 8.47 3.18 16.9 6.35 25.4 9.5 0.676 0.251 1.35 0.503 2.05 0.761 9.17 3.41 18.4 6.78 27.5 10.2 1.05 0.385 2.1 0.77 3.18 1.17 1.06 0.388 2.12 0.776 3.21 1.18 2.15 0.79 4.31 1.58 6.46 2.37 1.06 0.388 2.12 0.777 3.21 1.18 15.6 5.74 31.2 11.6 46.8 17.5 5.3 2.02 10.6 4.01 15.9 6 0.9 0.337 1.8 0.674 2.73 1.02 1.8 0.675 3.61 1.35 5.41 2.03 2.26 0.847 4.52 1.7 6.78 2.55 8.35 3.14 16.7 6.23 25.1 9.26 10.4 3.76 20.8 7.56 31.1 11.4 0.938 0.35 1.88 0.7 2.84 1.06 5.46 2.04 10.9 4.08 16.4 6.13 1.71 0.636 3.42 1.27 5.13 1.89 4.34 1.58 8.61 3.24 12.9 5.08 10.9 4.68 10.9 4.68 22.3 2.65 1.86-0.923 3.68-1.89 5.5-2.89 3.64-1.86 7.5-3.16 11.3-4.54 1.69-0.625 3.37-1.25 5.06-1.88 1.78-0.658 3.56-1.32 5.33-1.97 1.9-0.705 3.8-1.41 5.7-2.11 3.92-1.46 7.85-2.91 11.8-4.37 5.42-2.01 10.8-4.02 16.3-6.04 0.85-0.317 1.7-0.633 2.58-0.959 1.72-0.641 3.44-1.28 5.16-1.92 18.4-6.86 36.8-13.7 55.3-20.5 15.4-5.71 30.8-11.4 46.2-17.2 1.32-0.493 1.32-0.493 2.67-0.995 7.36-2.74 14.7-5.48 22.1-8.22 19.2-7.16 38.4-14.2 57.7-21.3 15.9-5.85 31.9-11.7 47.8-17.7 11-4.1 22-8.18 33-12.2 3.72-1.34 7.41-2.7 11.1-4.2-2.48-2.95-4.79-3.79-8.45-4.88-1.7-0.508-1.7-0.508-3.44-1.03-1.88-0.543-1.88-0.543-3.8-1.1-1.35-0.397-2.7-0.795-4.06-1.19-12-3.51-24-6.81-36.1-10.1-16.1-4.41-32.3-8.93-48.4-13.5-0.689-0.194-1.38-0.388-2.09-0.588-20-5.63-40-11.3-59.9-16.9-19.8-5.61-39.6-11.2-59.5-16.8-0.76-0.214-1.52-0.428-2.3-0.649-22-6.2-44-12.4-66-18.5-9.51-2.65-19-5.33-28.5-8.07-2.71-0.778-5.42-1.56-8.13-2.33-2.49-0.716-4.97-1.44-7.45-2.17-1.49-0.428-2.98-0.856-4.47-1.28-0.658-0.196-1.32-0.392-1.99-0.594-9.05-2.56-16.1-0.559-24.9 1.98zm-375 111c-1.69 2.07-1.69 2.07-3.25 4.8-0.615 1.01-1.23 2.02-1.86 3.06-0.623 1.04-1.25 2.07-1.89 3.14-1.14 1.83-2.29 3.66-3.44 5.48-1.19 1.9-2.38 3.8-3.56 5.71-1.32 2.12-2.65 4.24-3.97 6.36-0.669 1.07-1.34 2.14-2.03 3.25-1.91 3.06-3.83 6.12-5.75 9.18-7.25 11.6-14.5 23.2-21.6 34.8-4.09 6.66-8.2 13.3-12.4 19.9-2.35 3.74-4.67 7.5-6.98 11.3-3.8 6.19-7.65 12.3-11.5 18.5-4.97 7.95-9.94 15.9-14.9 23.9-0.511 0.824-1.02 1.65-1.55 2.5-0.975 1.58-1.95 3.15-2.91 4.74-1.05 1.7-2.13 3.39-3.21 5.07-0.56 0.881-1.12 1.76-1.7 2.67-0.515 0.795-1.03 1.59-1.56 2.41-1.18 2.16-1.18 2.16-0.873 4.42 1.6 3.35 5.46 4.17 8.74 5.45 1.27 0.515 1.27 0.515 2.57 1.04 9.72 3.89 19.6 7.47 29.4 11.1 8.09 2.96 16.1 5.98 24.2 8.98 14.8 5.52 29.6 11 44.5 16.5 12.3 4.52 24.6 9.06 36.9 13.6 0.733 0.272 1.47 0.545 2.22 0.825 8.91 3.31 17.8 6.64 26.7 9.99 9.28 3.49 18.6 6.91 27.9 10.3 10.3 3.78 20.7 7.6 31 11.4 0.733 0.273 1.47 0.545 2.22 0.826 4.47 1.66 8.94 3.32 13.4 4.98 5.63 2.09 11.3 4.18 16.9 6.28 1.42 0.526 2.83 1.05 4.25 1.58 9.15 3.4 18.3 6.79 27.5 10.2 0.981 0.362 1.96 0.724 2.97 1.1 5.98 2.21 5.98 2.21 12 4.41 9.59 3.53 19.2 7.07 28.7 10.8 0.678 0.262 1.36 0.524 2.05 0.795 3.05 1.18 6.09 2.37 9.13 3.58 6.03 2.34 11.3 3.76 17.8 4.13 8.42-13.3 16.7-26.6 25-40 0.604-0.979 0.604-0.979 1.22-1.98 2.88-4.67 5.76-9.35 8.62-14 3.84-6.26 7.73-12.5 11.7-18.7 4.9-7.73 9.71-15.5 14.5-23.3 4.62-7.53 9.26-15 14-22.5 4.83-7.61 9.58-15.3 14.3-22.9 0.658-1.07 1.32-2.13 1.99-3.23 1.27-2.07 2.54-4.15 3.81-6.23 1.3-2.14 2.62-4.26 3.96-6.38 0.65-1.05 1.3-2.11 1.97-3.19 0.888-1.41 0.888-1.41 1.79-2.86 1.31-2.59 1.31-2.59 1.34-5.31-1.88-3.77-5.33-4.46-9.1-5.75-0.81-0.294-1.62-0.589-2.45-0.892-1.7-0.617-3.4-1.23-5.11-1.83-3.09-1.1-6.14-2.26-9.2-3.42-3.85-1.47-7.71-2.9-11.6-4.35-1.26-0.472-1.26-0.472-2.54-0.953-19-7.12-38-14.1-57.1-21.2-8.61-3.18-17.2-6.37-25.8-9.57-1.04-0.386-1.04-0.386-2.1-0.78-5.07-1.88-10.1-3.77-15.2-5.66-1.66-0.618-3.32-1.24-4.98-1.85-5.34-1.99-10.7-3.97-16-5.96-0.9-0.335-1.8-0.669-2.73-1.01-9.17-3.41-18.3-6.82-27.5-10.2-18.9-7.03-37.7-14-56.6-21-11.1-4.09-22.2-8.19-33.3-12.3-1.05-0.391-1.05-0.391-2.12-0.789-7.92-2.94-15.8-5.89-23.8-8.85-24.9-9.31-24.9-9.31-49.9-18.5-1-0.368-2-0.735-3.04-1.11-0.896-0.323-1.79-0.646-2.71-0.979-0.758-0.275-1.52-0.55-2.3-0.834-2.09-0.713-2.09-0.713-4.95-0.572zm775 1.25c-1.17 0.411-1.17 0.411-2.37 0.831-0.853 0.303-1.71 0.606-2.58 0.918-0.891 0.314-1.78 0.629-2.7 0.953-10.2 3.6-20.3 7.35-30.4 11.1-3.02 1.12-6.04 2.24-9.06 3.36-2.04 0.755-4.07 1.51-6.11 2.26-6.62 2.45-13.2 4.89-19.9 7.32-0.857 0.315-1.71 0.629-2.6 0.953-6.66 2.45-6.66 2.45-9.75 3.57-7.4 2.71-14.8 5.45-22.1 8.42-6.5 2.63-13.1 4.96-19.7 7.26-9.45 3.28-18.8 6.78-28.2 10.3-5.57 2.09-11.1 4.17-16.7 6.25-1.15 0.431-2.31 0.863-3.5 1.31-12.7 4.73-25.4 9.43-38.1 14.1-20.6 7.61-41.1 15.2-61.7 22.9-7.24 2.7-14.5 5.39-21.7 8.08-7.18 2.67-14.4 5.34-21.5 8.02-4.96 1.85-9.92 3.69-14.9 5.52-3 1.11-5.99 2.22-8.99 3.34-1.37 0.51-2.75 1.02-4.13 1.53-1.87 0.69-3.74 1.39-5.61 2.08-1.56 0.578-1.56 0.578-3.15 1.17-2.79 1.18-5.27 2.56-7.82 4.19 0.436 5.93 3.05 9.95 6.12 14.9 0.531 0.868 1.06 1.74 1.61 2.63 1.74 2.84 3.5 5.67 5.26 8.5 0.888 1.43 0.888 1.43 1.79 2.89 3.75 6.03 7.51 12 11.3 18.1 3.12 4.97 6.24 9.95 9.36 14.9 0.614 0.981 1.23 1.96 1.86 2.97 5.35 8.56 10.6 17.2 15.9 25.8 4.03 6.55 8.1 13.1 12.2 19.6 3.36 5.29 6.67 10.6 9.88 16 9.2 15.5 18.9 30.7 28.7 45.8 8.25-0.416 15.1-3.04 22.8-6.06 1.29-0.502 2.58-1 3.88-1.5 2.59-1 5.17-2.01 7.75-3.02 4.95-1.93 9.91-3.83 14.9-5.73 0.746-0.288 1.49-0.576 2.26-0.873 5.08-1.95 10.2-3.77 15.3-5.57 8.98-3.15 17.9-6.46 26.8-9.79 2.81-1.05 5.61-2.09 8.42-3.14 3.83-1.43 7.66-2.86 11.5-4.29 7.75-2.89 15.5-5.77 23.2-8.65 1.06-0.392 1.06-0.392 2.13-0.793 11.2-4.15 22.4-8.28 33.6-12.4 19-7 38-14.1 57-21.2 5.41-2.01 10.8-4.03 16.2-6.04 0.886-0.33 1.77-0.659 2.68-0.999 4.47-1.66 8.94-3.33 13.4-4.99 8.08-3.01 16.2-6.01 24.2-9.03 3.61-1.35 7.22-2.69 10.8-4.03 1.78-0.665 3.57-1.33 5.35-2 10.1-3.75 20.1-7.46 30.2-11.1 1.88-0.682 3.77-1.36 5.65-2.05 3.55-1.29 7.11-2.56 10.7-3.83 7.78-2.8 15.1-5.59 22.2-9.96-1.54-5.59-4.25-10.1-7.25-15-0.53-0.874-1.06-1.75-1.61-2.65-4.45-7.3-9.04-14.5-13.7-21.7-7.32-11.4-14.4-23-21.5-34.6-7.74-12.6-15.5-25.2-23.4-37.8-4.19-6.61-8.29-13.3-12.4-19.9-5.49-8.93-11-17.8-16.5-26.8-0.628-1.02-1.26-2.04-1.9-3.09-0.877-1.41-0.877-1.41-1.77-2.85-0.511-0.824-1.02-1.65-1.55-2.5-1.36-1.98-2.63-3.59-4.46-5.13-2.24 0-3.69 0.506-5.8 1.25zm-399 176c-1.38 2-1.38 2-2.81 4.69-3.25 5.73-6.64 11.3-10.1 16.9-4.38 7.04-8.74 14.1-13.1 21.2-5.75 9.36-11.5 18.7-17.4 28-4.88 7.71-9.65 15.5-14.4 23.3-5.31 8.64-10.7 17.3-16.1 25.9-3.14 5.01-6.26 10-9.34 15.1-1.25 2.02-2.5 4.04-3.75 6.06-0.433 0.708-0.866 1.42-1.31 2.15-1.44 2.36-2.91 4.7-4.38 7.04-0.452 0.744-0.904 1.49-1.37 2.26-1.83 2.89-3.33 5.13-6.15 7.11-9.81 1.58-18.6-2.4-27.6-5.89-3.48-1.35-6.96-2.68-10.4-4.01-1.9-0.724-3.79-1.45-5.69-2.18-10.8-4.15-21.7-8.17-32.6-12.2-17.3-6.4-34.7-12.8-52-19.3-12.3-4.61-24.5-9.18-36.9-13.7-10-3.67-20-7.38-30-11.1-2.76-1.03-5.52-2.05-8.28-3.08-8.07-3-16.1-6.01-24.2-9.04-3.27-1.23-6.54-2.45-9.81-3.68-1.53-0.573-3.06-1.15-4.58-1.72-2.09-0.791-4.19-1.58-6.29-2.36-1.18-0.443-2.35-0.886-3.57-1.34-2.84-1.09-2.84-1.09-5.87-0.939-0.113 12.3 0.241 24.6 0.719 36.9 0.0775 2.06 0.155 4.11 0.232 6.17 0.208 5.54 0.42 11.1 0.632 16.6 0.223 5.83 0.443 11.7 0.663 17.5 0.37 9.79 0.743 19.6 1.12 29.4 0.478 12.5 0.952 25 1.43 37.5 0.41 10.8 0.821 21.6 1.23 32.5 0.131 3.44 0.261 6.89 0.392 10.3 0.207 5.45 0.415 10.9 0.623 16.3 0.0756 1.98 0.151 3.96 0.226 5.94 0.17 4.48 0.344 8.97 0.526 13.5 0.156 3.83 0.29 7.66 0.417 11.5 0.0741 2.01 0.149 4.02 0.223 6.04 0.0277 0.941 0.0553 1.88 0.0838 2.85 0.0343 0.871 0.0686 1.74 0.104 2.64 0.026 0.768 0.052 1.54 0.0789 2.33 0.207 2.33 0.207 2.33 2.31 5.02 2.12 1.09 2.12 1.09 4.67 1.92 1.47 0.524 1.47 0.524 2.97 1.06 1.61 0.557 1.61 0.557 3.26 1.12 1.68 0.594 1.68 0.594 3.39 1.2 3.05 1.08 6.11 2.15 9.17 3.21 3.21 1.12 6.42 2.26 9.63 3.39 1.3 0.459 2.6 0.917 3.89 1.38 0.965 0.341 0.965 0.341 1.95 0.689 1.96 0.692 3.92 1.38 5.88 2.07 11.2 3.93 22.3 7.95 33.4 12 16.1 5.87 32.2 11.7 48.3 17.4 18.5 6.61 36.9 13.3 55.4 20 9.08 3.31 18.2 6.61 27.3 9.88 8.6 3.09 17.2 6.2 25.8 9.33 1.62 0.59 1.62 0.59 3.27 1.19 2.22 0.81 4.44 1.62 6.66 2.43 18.9 6.9 37.9 13.8 56.9 20.5 0.896 0.318 1.79 0.636 2.71 0.964 5.02 1.78 10 3.56 15.1 5.33 2.68 0.948 5.37 1.9 8.05 2.86 1.81 0.64 3.62 1.28 5.43 1.92 0.834 0.298 1.67 0.596 2.53 0.903 5.64 2.09 5.64 2.09 11.5 3.21 2.79-2.79 2.26-4.48 2.28-8.39 0.00869-0.995 0.00869-0.995 0.0176-2.01 0.0171-2.23 0.0199-4.46 0.0228-6.7 0.00929-1.6 0.0195-3.19 0.0304-4.79 0.0274-4.34 0.0425-8.69 0.0554-13 0.0156-4.54 0.0424-9.07 0.068-13.6 0.0469-8.59 0.0836-17.2 0.117-25.8 0.0382-9.78 0.0876-19.6 0.138-29.3 0.103-20.1 0.192-40.2 0.273-60.4h24c-0.00444 1.98-0.00888 3.97-0.0135 6.01-0.0408 18.7-0.0706 37.3-0.0902 56-0.0103 9.59-0.0244 19.2-0.0473 28.8-0.0199 8.36-0.0328 16.7-0.0373 25.1-0.00261 4.43-0.00876 8.86-0.0233 13.3-0.0136 4.17-0.0178 8.33-0.0148 12.5-5.51e-4 1.53-0.00454 3.06-0.0122 4.59-0.00993 2.09-0.00756 4.17-0.0021 6.26-0.00184 1.17-0.00369 2.34-0.00559 3.54 0.239 2.88 0.74 4.54 2.25 6.98 7.78-0.483 14.3-2.62 21.6-5.31 1.33-0.483 2.67-0.965 4-1.45 3.9-1.41 7.8-2.84 11.7-4.26 4.9-1.79 9.8-3.57 14.7-5.35 6.84-2.49 13.7-4.97 20.5-7.46 18-6.54 35.9-13 53.9-19.5 0.665-0.239 1.33-0.477 2.01-0.723 8.14-2.92 16.3-5.84 24.4-8.77 12.2-4.37 24.3-8.73 36.5-13.1 1.34-0.481 2.68-0.963 4.02-1.44 20.9-7.51 41.8-15.1 62.7-22.6 13.5-4.91 27.1-9.8 40.7-14.6 0.646-0.231 1.29-0.461 1.96-0.699 6.83-2.43 13.7-4.87 20.5-7.29 2.22-0.789 4.43-1.58 6.65-2.37 0.989-0.35 1.98-0.7 3-1.06 4.61-1.64 9.2-3.32 13.8-5.09 0.804-0.312 1.61-0.623 2.44-0.945 2.16-0.869 2.16-0.869 3.99-2.93 0.43-2.68 0.43-2.68 0.547-5.91 0.0712-1.3 0.142-2.6 0.216-3.93 0.0704-1.48 0.14-2.96 0.21-4.44 0.0809-1.59 0.162-3.18 0.244-4.76 1.21-24 2.06-48 2.98-72.1 0.271-7.1 0.545-14.2 0.819-21.3 0.138-3.58 0.276-7.15 0.414-10.7 0.0272-0.705 0.0544-1.41 0.0824-2.14 0.191-4.95 0.381-9.9 0.571-14.8 0.59-15.4 1.19-30.8 1.8-46.2 0.111-2.79 0.221-5.59 0.332-8.38 0.561-14.2 0.561-14.2 0.793-20 0.147-3.68 0.293-7.35 0.437-11 0.0752-1.91 0.152-3.81 0.23-5.72 0.255-6.54 0.394-13.1 0.33-19.6-6.63 1.33-12.8 3.21-19.1 5.6-1.42 0.525-1.42 0.525-2.86 1.06-3.04 1.13-6.07 2.27-9.11 3.4-2.1 0.781-4.19 1.56-6.29 2.34-5.02 1.87-10 3.75-15.1 5.63-2.23 0.835-4.46 1.67-6.69 2.5-6.63 2.48-13.3 4.97-19.9 7.47-14.7 5.55-29.5 11-44.3 16.5-21.4 7.84-42.8 15.8-64.2 23.7-5.78 2.15-11.6 4.3-17.3 6.45-1.17 0.435-1.17 0.435-2.36 0.879-3.73 1.39-7.46 2.77-11.2 4.15-5.94 2.2-11.9 4.41-17.8 6.69-1.33 0.506-1.33 0.506-2.68 1.02-1.53 0.587-3.07 1.18-4.59 1.79-5.27 2.01-9.81 2.89-15.2 0.83-3.43-2.87-5.42-6.26-7.71-10.1-0.763-1.24-0.763-1.24-1.54-2.5-1.12-1.82-2.23-3.64-3.34-5.47-2.57-4.22-5.16-8.42-7.75-12.6-1.38-2.24-2.75-4.48-4.13-6.72-3.93-6.4-7.9-12.8-11.9-19.1-8.17-12.9-16.1-25.9-24.1-38.9-2.06-3.35-4.11-6.7-6.17-10-0.667-1.09-1.33-2.17-2.02-3.29-3.95-6.41-7.94-12.8-12-19.1-14.9-23.5-14.9-23.5-18.8-31.1h-3v44c-0.99-0.33-1.98-0.66-3-1-1.63-0.0156-3.26 0.0323-4.89 0.121-0.938 0.0483-1.88 0.0967-2.84 0.146-0.976 0.0561-1.95 0.112-2.96 0.17-0.988 0.0522-1.98 0.104-2.99 0.158-2.44 0.13-4.88 0.265-7.32 0.404 0.00524-1.23 0.0105-2.45 0.0159-3.72 0.0181-4.55 0.0296-9.09 0.0391-13.6 0.00503-1.97 0.0119-3.94 0.0205-5.9 0.0121-2.83 0.0178-5.65 0.0222-8.48 0.00516-0.881 0.0103-1.76 0.0156-2.67 7.55e-5 -0.821 1.51e-4 -1.64 2.29e-4 -2.49 0.00222-0.722 0.00444-1.44 0.00673-2.19-0.052-2.14-0.052-2.14-1.12-4.92h-2z"/>
<path transform="translate(808,798)" d="m0 0c1.2 0.557 2.39 1.11 3.62 1.69 7.57 4.65 12.1 11.9 14.4 20.3 2.11 10.8 0.412 21.2-5.31 30.7-7.11 9.86-15.9 17.3-25.7 24.3 2.19 12.9 22 29 32 37 1.49 0.495 1.49 0.495 3 1 0.273-0.882 0.547-1.76 0.828-2.67 1.08-3.08 2.37-5.72 3.92-8.58 3.71-7.26 6.14-14.9 8.57-22.6 0.867-2.72 1.78-5.43 2.68-8.14h26c-1.88 6.88-3.73 13.5-6.19 20.2-0.298 0.807-0.597 1.61-0.904 2.45-3.71 9.79-8.2 19.3-13.8 28.1-1.73 2.73-2.44 4.22-3.06 7.25 1 0.371 1 0.371 2.03 0.75 3.64 1.53 7.06 3.37 10.5 5.25 5.68 3.08 5.68 3.08 11.4 6-1.51 7.44-3.29 14.9-6 22-2 1-2 1-4.58 0.25-10.4-4.04-20.2-8.95-29.4-15.2-3.56 1.66-6.76 3.75-10.1 5.88-15.3 9.55-32.8 12.5-50.6 9.06-12.7-3.32-22.6-9.78-29.6-20.8-6.24-11.1-7.53-23.1-5.09-35.6 4.34-14.4 14-25.5 26.3-33.6-1.28-3.96-2.7-7.84-4.21-11.7-5.67-14.6-8.18-28.1-2.79-43.3 4.51-9.99 11.8-17.2 22-21.3 9.52-3.22 20.9-2.99 30 1.31zm-26 20c-5.44 7.49-5.72 15-5 24 1.56 8.71 1.56 8.71 6 16 6.47-0.431 11.7-7.62 15.9-12 4.99-5.86 6.44-12.8 5.93-20.4-0.942-4.84-3.1-7.55-6.84-10.6-5.87-2.94-11.4-1.1-16 3zm-8 74c-2.32 2.43-2.32 2.43-4.56 5.56-0.785 1.03-1.57 2.07-2.38 3.13-4.47 7.18-5.3 15.3-3.59 23.5 2.22 6.77 6.37 11.9 12.7 15.1 7.07 3.21 14.9 4.06 22.4 1.87 2.21-0.974 4.29-2.04 6.39-3.25 0.695-0.382 1.39-0.763 2.11-1.16 1.65-0.921 3.27-1.88 4.89-2.84-1.43-3.28-3.17-5.37-5.75-7.84-0.75-0.728-1.5-1.46-2.27-2.21-0.798-0.77-1.6-1.54-2.42-2.33-8.49-8.33-16.4-16.9-22.7-27-0.626-0.861-1.25-1.72-1.9-2.61h-3z"/>
<path transform="translate(1128,616)" d="m0 0h3c0.485 0.859 0.971 1.72 1.47 2.6 4.68 8.25 9.51 16.4 14.5 24.5 6.86 11.2 13.6 22.5 20.2 33.9 0.981 1.69 0.981 1.69 1.98 3.4 0.633 1.09 1.27 2.18 1.92 3.3 1.4 2.36 2.82 4.68 4.29 7 0.376 0.596 0.753 1.19 1.14 1.81 1.05 1.66 2.12 3.31 3.18 4.97 0.453 0.846 0.906 1.69 1.37 2.56-1.95 3.91-7.28 5.09-11.2 6.56-4.03 1.26-5.99 1.75-10 0.138-2.86-2.39-5.3-4.92-7.78-7.7-1.65-1.52-3.31-3.02-5-4.5-0.816-0.743-1.63-1.49-2.47-2.25-5.38-4.79-11-9.27-16.7-13.7-1.51-1.21-1.51-1.21-3.05-2.44-1.38-1.1-1.38-1.1-2.79-2.21-0.666-0.61-1.33-1.22-2.02-1.85v-2c-0.541-0.224-1.08-0.449-1.64-0.68-3.09-1.73-5.54-4.04-8.11-6.45-0.76-0.702-0.76-0.702-1.54-1.42-1.24-1.15-2.48-2.3-3.71-3.46 1.42 4.18 3.45 6.99 6.25 10.4 6.93 8.68 12.4 18.3 18.1 27.8 2.47 4.11 5.01 8.18 7.56 12.2 0.423 0.674 0.846 1.35 1.28 2.04 0.947 1.51 1.89 3.01 2.84 4.52-2.86 2.3-5.6 3.86-9 5.25-0.846 0.356-1.69 0.712-2.56 1.08-2.8 0.773-3.85 1-6.44-0.328-1.58-2.06-2.88-4.02-4.19-6.25-0.42-0.693-0.84-1.39-1.27-2.1-1.53-2.54-3.04-5.09-4.54-7.65-0.611-1.04-1.22-2.08-1.85-3.15-2.8-4.78-5.6-9.56-8.39-14.3-5.89-10.1-11.9-20.1-18-30.1-4.11-6.71-8.02-13.5-11.7-20.5 2.39-1.01 4.79-2.01 7.19-3 0.674-0.286 1.35-0.572 2.04-0.867 6.82-2.8 6.82-2.8 10.8-2.13 1.63 1.21 1.63 1.21 3.12 2.94 3.66 3.94 7.66 7.23 11.8 10.6 8.05 6.53 15.9 13.3 23.5 20.3 3.55 3.14 7.23 6.1 10.9 9.05 2.67 2.25 5.11 4.64 7.54 7.14-1.7-3.89-4.26-7.08-6.81-10.4-6.44-8.63-12.1-17.7-17.6-27-1.54-2.55-3.1-5.09-4.66-7.63-0.932-1.54-1.86-3.07-2.79-4.61-0.435-0.704-0.87-1.41-1.32-2.13-1.02-1.7-1.92-3.47-2.81-5.24 0.33-0.99 0.66-1.98 1-3 2.69-1.13 2.69-1.13 6-2.12 3.8-0.897 3.8-0.897 7-2.88z"/>
<path transform="translate(543 641)" d="m0 0c5.03 4.03 8.52 9.26 9.75 15.6 1.9 20.3-8 37.7-20.4 53-8.52 9.9-18.8 17.8-32 19.8-9.11 0.667-16.9-0.547-24.6-5.81-5.28-4.69-8.6-10-9.32-17.1-0.751-21.9 11.6-41.1 26-56.6 13.7-13.4 33.2-19.4 50.6-8.93zm-38.3 22.3c-7.8 9.32-17.5 24.4-18.1 36.8 0.419 3.76 0.686 5.93 3.05 8.99 3.82 2.78 6.33 2.89 11.1 2.5 2.64-1.23 4.67-2.34 7-4 0.566-0.401 1.13-0.802 1.71-1.21 10.5-8.18 21.1-24.5 23.2-37.9 0.279-4.73-0.166-7.85-2.82-11.8-2.6-2.68-3.46-3.06-7.19-3.44-7.7 0.621-12.7 4.48-17.9 10z"/>
<path transform="translate(1212,605)" d="m0 0c3.51 2.83 6.78 5.84 10 9 0.629 0.616 1.26 1.23 1.91 1.87 10.4 11 18.8 27.4 19.4 42.6-0.276 8.35-3.13 14.4-8.91 20.4-6.95 5.96-16 8.77-24.4 12-0.825 0.319-1.65 0.638-2.5 0.967-0.783 0.288-1.57 0.576-2.37 0.873-0.699 0.26-1.4 0.521-2.12 0.789-2.43 0.525-3.72 0.397-6.01-0.566-1.3-1.52-1.3-1.52-2.45-3.52-0.446-0.76-0.892-1.52-1.35-2.3-0.477-0.841-0.954-1.68-1.44-2.55-1.06-1.83-2.13-3.65-3.2-5.48-0.57-0.988-1.14-1.98-1.73-2.99-2.93-5.05-5.93-10.1-8.91-15.1-5.2-8.75-10.4-17.5-15.5-26.3-1.95-3.33-3.92-6.64-5.93-9.94-0.621-1.02-0.621-1.02-1.25-2.07-0.778-1.28-1.56-2.56-2.35-3.84-1.96-3.22-3.51-6.39-4.87-9.91 3.62-1.47 7.25-2.93 10.9-4.38 1.01-0.413 2.03-0.825 3.07-1.25 16.5-6.54 34.8-8.97 50.1 1.62zm-38 13c5.03 8.99 10.3 17.9 15.6 26.7 0.625 1.04 1.25 2.09 1.89 3.16 3.6 5.99 7.28 11.9 11.1 17.8 1.29 2.08 2.42 4.16 3.47 6.36 6.46-0.517 10.5-2.24 14.9-7.06 2.86-7.45 1.38-15-1.55-22.2-5.17-10.8-12.4-21.9-23.6-26.9-7.92-2.36-14.4-1.22-21.7 2.19z"/>
<path transform="translate(999 695)" d="m0 0c13.4 14.5 23.9 33.5 23.5 53.5-0.634 6.38-2.69 11.1-7.27 15.6-7.81 6.25-16.9 7.7-26.7 6.92-16.5-2.75-28.7-15.2-38.1-28.3-7.74-11.4-16.1-27.3-14.3-41.5 1.86-7.57 4.59-13.4 11-18 18.6-10.9 37.7-1.85 51.8 11.8zm-40.8 5.23c-2.35 4.69-1.48 10.3-0.129 15.2 4.74 13 14.1 30.5 27.1 36.8 3.02 1.19 5.74 1.98 9 2 3.89-1.91 5.6-3.4 8-7 1.51-13.4-6.36-26.5-14-37-5.02-5.94-11-12.9-19-14.4-4.95-0.314-7.57 0.864-11 4.37z"/>
<path transform="translate(1058,645)" d="m0 0c1.46 1.82 1.46 1.82 2.81 4.21 0.768 1.33 0.768 1.33 1.55 2.69 0.81 1.44 0.81 1.44 1.64 2.92 1.16 2.02 2.32 4.04 3.49 6.06 0.586 1.03 1.17 2.05 1.78 3.11 2.58 4.48 5.25 8.9 7.92 13.3 0.983 1.64 1.97 3.29 2.95 4.93 1.87 3.12 3.77 6.21 5.7 9.29 13.2 21.4 13.2 21.4 10.9 33.4-2.47 7.2-6.07 11.1-12.8 14.6-9.25 4.24-20.2 5.48-30.1 2.19-14.8-6.99-23-22.1-30.9-35.6-4.11-7.07-8.36-14.1-12.6-21.1-3.96-6.57-7.74-13.2-11.4-20 3.33-1.33 6.67-2.67 10-4 0.852-0.394 1.7-0.789 2.58-1.2 2.82-0.94 3.7-0.96 6.42 0.195 1.78 2.27 1.78 2.27 3.58 5.31 0.678 1.13 1.36 2.26 2.05 3.42 0.726 1.24 1.45 2.47 2.18 3.71 0.753 1.26 1.51 2.52 2.26 3.79 3.78 6.34 7.48 12.7 11.1 19.1 0.333 0.585 0.667 1.17 1.01 1.77 1.58 2.77 3.15 5.55 4.7 8.34 6.76 12.2 6.76 12.2 18.1 19.5 3.74 0.0943 7.02-0.607 10.5-2 1.97-2.62 2.29-4.85 2.14-8.09-2.24-10.2-9.09-19.9-14.6-28.6-2.61-4.13-5.12-8.32-7.62-12.5-1.98-3.32-3.98-6.62-6.02-9.9-0.417-0.677-0.834-1.35-1.26-2.05-0.801-1.3-1.61-2.59-2.42-3.88-2.06-3.36-2.74-4.87-2.74-8.92 2.08-0.868 4.16-1.72 6.25-2.56 1.16-0.476 2.32-0.951 3.52-1.44 3.27-1.01 4.19-1.27 7.23 0.00391z"/>
<path transform="translate(623 675)" d="m0 0c3.91 3.71 6.8 7.45 9.02 12.4-0.0117 1.96-0.0117 1.96-1 4-2.8 1.99-2.8 1.99-6.31 3.88-1.15 0.637-2.3 1.27-3.49 1.93-3.2 1.2-3.2 1.2-5.51 0.566-1.69-1.37-1.69-1.37-3.38-4.18-3.67-5.06-8.58-7.38-14.5-9.12-3.37-0.0748-5.74 0.581-8.81 1.94-0.33 0.66-0.66 1.32-1 2h-2c0.369 8.85 5.8 13.7 11.6 20 6.85 7.49 10.9 13.7 10.8 24-0.793 6.74-4.67 13.2-9.35 18h-2v2c-10.6 6.5-20.8 9.88-33.2 7.34-11.3-3.07-19.5-8.47-25.8-18.3-0.619-0.908-1.24-1.82-1.88-2.75-1.12-2.25-1.12-2.25-1.12-6.25 2.43-1.34 4.87-2.67 7.31-4 1.04-0.572 1.04-0.572 2.09-1.16 5.26-2.84 5.26-2.84 8.6-2.84 0.516 1.2 1.03 2.39 1.56 3.62 3.48 6.89 9.09 10.9 16.2 13.7 3.92 1.09 6.34 0.767 10.3-0.367 2.73-1.97 2.73-1.97 4-5 0.497-6.34-2.78-9.76-6.74-14.5-1.46-1.64-2.93-3.26-4.43-4.87-6.06-6.52-9.93-12.1-10.3-21.2 0.412-8.99 4.92-14.7 10.9-21.2 13.6-12 35-10.9 48.5 0.363z"/>
<path transform="translate(910,699)" d="m0 0c1.34 2.29 2.67 4.58 4 6.88 0.382 0.651 0.763 1.3 1.16 1.97 2.84 4.93 2.84 4.93 2.84 7.15-4.04 1.55-8.08 3.1-12.1 4.64-1.37 0.525-2.75 1.05-4.12 1.58-1.98 0.761-3.96 1.52-5.94 2.27-1.19 0.456-2.38 0.911-3.6 1.38-2.76 0.96-5.35 1.65-8.23 2.12 0.298 0.53 0.595 1.06 0.902 1.6 1.35 2.4 2.69 4.8 4.04 7.21 0.469 0.833 0.937 1.67 1.42 2.53 0.448 0.802 0.896 1.6 1.36 2.43 0.414 0.738 0.827 1.48 1.25 2.24 1.03 1.99 1.03 1.99 2.03 4.99 0.863-0.338 1.73-0.677 2.61-1.03 3.2-1.25 6.4-2.49 9.61-3.73 1.39-0.537 2.77-1.08 4.16-1.62 1.99-0.781 3.98-1.55 5.98-2.32 1.2-0.466 2.4-0.932 3.63-1.41 3-0.896 3-0.896 6 0.104 1.82 2.62 1.82 2.62 3.69 5.88 0.934 1.6 0.934 1.6 1.89 3.24 1.43 2.88 1.43 2.88 1.43 5.88-0.671 0.262-1.34 0.524-2.03 0.794-3.05 1.19-6.1 2.39-9.16 3.58-1.06 0.413-2.11 0.825-3.2 1.25-1.02 0.4-2.04 0.799-3.1 1.21-0.937 0.367-1.87 0.733-2.84 1.11-2.56 1.01-5.12 2.03-7.68 3.05 2.86 5.47 5.86 10.8 9.07 16.1 0.814 1.34 0.814 1.34 1.64 2.7 1.1 1.8 2.21 3.6 3.32 5.4 0.511 0.838 1.02 1.68 1.55 2.54 0.465 0.752 0.929 1.5 1.41 2.28 1.01 2 1.01 2 1.01 5-5.61 1.98-11.2 3.96-17 6-4.33-6.98-8.6-14-12.8-21.1-3.67-6.27-7.38-12.5-11.1-18.8-0.5-0.832-0.999-1.66-1.51-2.52-2.58-4.3-5.17-8.59-7.76-12.9-4.58-7.61-9.16-15.2-13.6-22.9-0.634-1.1-1.27-2.19-1.92-3.32-1.33-2.55-1.33-2.55-1.33-4.55 0.523-0.194 1.05-0.388 1.59-0.587 5.47-2.03 10.9-4.05 16.4-6.08 2.04-0.756 4.08-1.51 6.11-2.27 2.94-1.09 5.87-2.18 8.81-3.27 0.904-0.334 1.81-0.669 2.74-1.01 3.81-1.42 7.58-2.86 11.3-4.52 3.06-1.26 3.06-1.26 6.06-1.26z"/>
<path transform="translate(650,686)" d="m0 0c8.01 2.57 15.8 5.58 23.7 8.62 0.677 0.262 1.35 0.525 2.05 0.795 9.93 3.85 19.8 7.79 29.7 11.9 0.821 0.341 1.64 0.683 2.49 1.03 0.703 0.295 1.41 0.591 2.13 0.895 1.97 0.747 3.92 1.28 5.98 1.75-0.698 3.97-2.63 7.27-4.56 10.8-0.329 0.602-0.659 1.2-0.998 1.82-0.809 1.48-1.62 2.95-2.44 4.43-6.71-1.83-13-4.17-19.3-7.01-2.82-1.22-2.82-1.22-6.66-0.988-0.361 0.67-0.721 1.34-1.09 2.03-3.59 6.63-7.31 13.2-11.2 19.7-0.562 0.95-1.12 1.9-1.7 2.88-3.81 6.42-7.73 12.8-11.7 19.1-2.86 4.55-5.49 9.19-8.01 13.9-1.95 3.58-4.12 6.99-6.32 10.4-6.42-1.74-12.1-3.85-18-7 4.34-8.19 9.03-16.1 13.8-24.1 1.88-3.1 3.74-6.2 5.61-9.31 0.549-0.914 0.549-0.914 1.11-1.85 3.34-5.57 6.63-11.2 9.91-16.8 2.8-4.78 5.66-9.52 8.58-14.2 1.12-1.74 1.12-1.74 0.961-3.79-7.26-2.64-14.5-5.28-22-8 0.95-4.75 2.11-7.25 4.56-11.3 0.961-1.6 0.961-1.6 1.94-3.24 0.494-0.808 0.987-1.62 1.5-2.45z"/>
<path transform="translate(437,602)" d="m0 0c6.47 1.16 12.1 3.12 18 6-1.69 4.74-4.15 8.92-6.69 13.2-0.715 1.23-0.715 1.23-1.45 2.48-7.6 13-15.3 25.9-23.2 38.8-0.511 0.831-1.02 1.66-1.55 2.52-0.946 1.54-1.9 3.07-2.85 4.6-1.71 2.78-3.2 5.29-4.24 8.39 4.04 1.67 8.08 3.35 12.1 5.02 1.37 0.568 2.74 1.14 4.12 1.71 1.98 0.819 3.96 1.64 5.94 2.46 1.19 0.492 2.38 0.985 3.6 1.49 2.74 1.13 5.48 2.24 8.23 3.33-1.43 3.79-3.16 7.27-5.12 10.8-0.539 0.976-1.08 1.95-1.63 2.96-0.41 0.736-0.82 1.47-1.24 2.23-4.12-0.683-7.78-1.96-11.7-3.48-0.954-0.37-0.954-0.37-1.93-0.746-2.05-0.796-4.1-1.6-6.15-2.4-1.4-0.547-2.81-1.09-4.21-1.64-9.73-3.79-19.4-7.68-29-11.7 0-4.31 0.534-5.36 2.72-8.91 0.594-0.976 1.19-1.95 1.8-2.96 0.654-1.05 1.31-2.11 1.98-3.2 1.03-1.69 2.06-3.38 3.09-5.07 0.716-1.18 1.43-2.35 2.15-3.52 3.82-6.24 7.54-12.5 11.3-18.8 7.13-12.1 14.3-24.1 21.5-36.1 1.49-2.48 2.98-4.96 4.46-7.43z"/>
</svg>
